<svg id="Solid" height="512" viewBox="0 0 512 512" width="512" xmlns="http://www.w3.org/2000/svg"><path d="m402.014 216 75.3 256h-114l-83.014-83.019 29.54-31.509a8 8 0 0 0 -5.04-13.432l-28.571-2.857 95.724-125.183zm-199.548 256h138.22l-71.339-71.339zm-59.266-128.04a8 8 0 0 1 -3.642-14.616l66.6-44.4-27.574-68.944h-68.6l-75.292 256h145.842l106.549-113.651zm77.234-49.3-53.41 35.607 90.894 9.09-.277-.212 94.171-123.145h-57.463l-31.085 67.353a8 8 0 0 1 -14.528 0l-31.085-67.353h-21.835l27.612 69.029a8 8 0 0 1 -2.99 9.627zm35.566-160.66a22 22 0 1 0 -22-22 22.025 22.025 0 0 0 22 22zm-43.194 35.6a72 72 0 1 1 86.388 0 8.008 8.008 0 0 0 -2.459 3.044l-40.735 88.265-40.735-88.26a8.017 8.017 0 0 0 -2.459-3.044zm5.194-57.6a38 38 0 1 0 38-38 38.043 38.043 0 0 0 -38 38z"/></svg>