<?xml version="1.0" standalone="no"?>
<!DOCTYPE svg PUBLIC "-//W3C//DTD SVG 20010904//EN"
 "http://www.w3.org/TR/2001/REC-SVG-20010904/DTD/svg10.dtd">
<svg version="1.0" xmlns="http://www.w3.org/2000/svg"
 width="810.000000pt" height="810.000000pt" viewBox="0 0 810.000000 810.000000"
 preserveAspectRatio="xMidYMid meet">
<metadata>
Created by potrace 1.16, written by Peter Selinger 2001-2019
</metadata>
<g transform="translate(0.000000,810.000000) scale(0.100000,-0.100000)"
fill="#000000" stroke="none">
<path d="M3730 8080 c-720 -68 -1324 -276 -1900 -655 -261 -172 -398 -285
-634 -521 -186 -185 -249 -258 -394 -449 -135 -179 -278 -414 -382 -630 -211
-436 -321 -812 -387 -1320 -25 -199 -25 -699 0 -905 25 -197 24 -195 59 -365
52 -257 157 -591 250 -795 63 -139 143 -298 186 -375 80 -141 267 -416 378
-554 109 -136 373 -410 499 -518 534 -456 1162 -766 1832 -902 455 -93 981
-106 1442 -35 293 45 668 153 956 276 597 254 1155 676 1551 1170 98 122 111
140 223 303 352 515 578 1128 658 1790 28 233 25 721 -5 950 -85 638 -272
1149 -625 1711 -79 125 -244 343 -361 474 -93 106 -355 357 -459 440 -62 50
-118 95 -125 101 -61 50 -374 259 -389 259 -2 0 -17 9 -32 19 -50 36 -315 169
-451 226 -349 147 -716 243 -1110 291 -157 19 -633 27 -780 14z m-518 -2124
c317 -81 557 -276 744 -604 25 -44 86 -59 122 -29 7 5 37 46 66 91 203 308
507 506 858 557 129 19 361 7 482 -26 292 -77 546 -244 714 -470 67 -90 154
-267 185 -375 68 -235 66 -487 -4 -780 -121 -499 -398 -965 -839 -1411 -336
-339 -709 -628 -1225 -946 -200 -124 -209 -128 -295 -128 -97 0 -116 10 -459
242 -207 140 -563 401 -591 433 -3 3 -63 55 -135 115 -343 291 -604 576 -810
885 -227 342 -339 627 -381 973 -49 393 78 787 347 1080 155 170 414 326 632
383 196 50 417 54 589 10z"/>
</g>
</svg>
