<?xml version="1.0" standalone="no"?><svg xmlns="http://www.w3.org/2000/svg" viewBox="0 0 1440 320"><path fill="#0099ff" fill-opacity="1" d="M0,32L14.1,53.3C28.2,75,56,117,85,165.3C112.9,213,141,267,169,266.7C197.6,267,226,213,254,197.3C282.4,181,311,203,339,197.3C367.1,192,395,160,424,149.3C451.8,139,480,149,508,176C536.5,203,565,245,593,234.7C621.2,224,649,160,678,149.3C705.9,139,734,181,762,176C790.6,171,819,117,847,85.3C875.3,53,904,43,932,58.7C960,75,988,117,1016,149.3C1044.7,181,1073,203,1101,192C1129.4,181,1158,139,1186,138.7C1214.1,139,1242,181,1271,181.3C1298.8,181,1327,139,1355,149.3C1383.5,160,1412,224,1426,256L1440,288L1440,0L1425.9,0C1411.8,0,1384,0,1355,0C1327.1,0,1299,0,1271,0C1242.4,0,1214,0,1186,0C1157.6,0,1129,0,1101,0C1072.9,0,1045,0,1016,0C988.2,0,960,0,932,0C903.5,0,875,0,847,0C818.8,0,791,0,762,0C734.1,0,706,0,678,0C649.4,0,621,0,593,0C564.7,0,536,0,508,0C480,0,452,0,424,0C395.3,0,367,0,339,0C310.6,0,282,0,254,0C225.9,0,198,0,169,0C141.2,0,113,0,85,0C56.5,0,28,0,14,0L0,0Z"></path></svg>