<?xml version="1.0" standalone="no"?><svg xmlns="http://www.w3.org/2000/svg" viewBox="0 0 1440 320"><path fill="#0099ff" fill-opacity="1" d="M0,256L15,234.7C30,213,60,171,90,165.3C120,160,150,192,180,218.7C210,245,240,267,270,250.7C300,235,330,181,360,154.7C390,128,420,128,450,144C480,160,510,192,540,192C570,192,600,160,630,149.3C660,139,690,149,720,154.7C750,160,780,160,810,149.3C840,139,870,117,900,122.7C930,128,960,160,990,154.7C1020,149,1050,107,1080,106.7C1110,107,1140,149,1170,170.7C1200,192,1230,192,1260,192C1290,192,1320,192,1350,202.7C1380,213,1410,235,1425,245.3L1440,256L1440,0L1425,0C1410,0,1380,0,1350,0C1320,0,1290,0,1260,0C1230,0,1200,0,1170,0C1140,0,1110,0,1080,0C1050,0,1020,0,990,0C960,0,930,0,900,0C870,0,840,0,810,0C780,0,750,0,720,0C690,0,660,0,630,0C600,0,570,0,540,0C510,0,480,0,450,0C420,0,390,0,360,0C330,0,300,0,270,0C240,0,210,0,180,0C150,0,120,0,90,0C60,0,30,0,15,0L0,0Z"></path></svg>