<?xml version="1.0" standalone="no"?><svg xmlns="http://www.w3.org/2000/svg" viewBox="0 0 1440 320"><path fill="#0099ff" fill-opacity="2" d="M0,192L26.7,160C53.3,128,107,64,160,85.3C213.3,107,267,213,320,261.3C373.3,309,427,299,480,293.3C533.3,288,587,288,640,256C693.3,224,747,160,800,149.3C853.3,139,907,181,960,186.7C1013.3,192,1067,160,1120,160C1173.3,160,1227,192,1280,208C1333.3,224,1387,224,1413,224L1440,224L1440,0L1413.3,0C1386.7,0,1333,0,1280,0C1226.7,0,1173,0,1120,0C1066.7,0,1013,0,960,0C906.7,0,853,0,800,0C746.7,0,693,0,640,0C586.7,0,533,0,480,0C426.7,0,373,0,320,0C266.7,0,213,0,160,0C106.7,0,53,0,27,0L0,0Z"></path></svg>